#!OML:ASF X:\für Bonn\!DataBase\2005_08_12_Daniel\c3d\Daniel.ASF
:FULLY-SPECIFIED
:DEGREES
201
root 0.101127 21.0601 0.0655465 -17.2525 -80.4781 7.89286
lowerback 9.64228 1.80625 -0.390537
upperback -6.47698 1.56551 -5.69079
thorax -12.3746 0.387003 -6.35691
lowerneck 8.84017 -6.57036 2.33609
upperneck 13.8392 -9.66963 3.7359
head 3.07386 -4.87697 0.798067
rclavicle -1.47101e-014 -3.02153e-014
rhumerus 89.9925 -7.9046 -92.0867
rradius 12.7549
rwrist 55.7364
rhand -8.02553 369.929
rfingers 7.12502
rthumb 17.8843 340.732
lclavicle -1.47101e-014 -3.02153e-014
lhumerus -138.863 212.813 -98.8382
lradius 93.705
lwrist 37.4544
lhand -14.5133 -3.72934
lfingers 7.12502
lthumb 11.6341 25.9277
rfemur 4.68622 7.90093 15.2426
rtibia 30.3262
rfoot 373.31 -21.7288
rtoes -8.33356
lfemur -8.86476 -14.9742 -16.0167
ltibia 41.6359
lfoot 22.2786 7.68104
ltoes -1.63937
202
root 0.114187 20.8379 0.070787 -17.5379 -80.7781 8.14682
lowerback 9.86832 1.79725 -0.20482
upperback -6.33899 1.58384 -5.70717
thorax -12.3469 0.383271 -6.49008
lowerneck 8.76338 -6.53224 2.44804
upperneck 13.7825 -9.59803 3.66426
head 3.05566 -4.83549 0.755439
rclavicle 1.43125e-014 5.08889e-014
rhumerus 88.6072 -8.00204 -89.2957
rradius 13.7762
rwrist 53.3952
rhand -10.5305 370.066
rfingers 7.12502
rthumb 15.4728 340.665
lclavicle 1.43125e-014 5.08889e-014
lhumerus -138.737 212.515 -99.0866
lradius 93.5505
lwrist 37.1693
lhand -14.8711 -3.79753
lfingers 7.12502
lthumb 11.289 25.8787
rfemur 4.01327 8.15649 14.9739
rtibia 30.3902
rfoot 371.243 -21.3444
rtoes -9.61439
lfemur -8.99133 -14.8704 -15.9407
ltibia 41.4291
lfoot 20.9106 7.89942
ltoes -1.12648
203
root 0.128963 20.6045 0.0757521 -17.5274 -81.0586 8.15863
lowerback 10.0645 1.76789 0.00138325
upperback -6.23456 1.58044 -5.70009
thorax -12.3418 0.367788 -6.60508
lowerneck 8.79856 -6.45888 2.50773
upperneck 13.6653 -9.47951 3.64564
head 3.00264 -4.7751 0.74368
rclavicle -6.87795e-014 -7.95139e-015
rhumerus 87.26 -7.95988 -86.9616
rradius 14.8269
rwrist 51.5524
rhand -12.8928 370.268
rfingers 7.12502
rthumb 13.1965 340.705
lclavicle -6.87795e-014 -7.95139e-015
lhumerus -138.682 212.205 -99.263
lradius 93.3883
lwrist 36.9081
lhand -15.216 -3.88066
lfingers 7.12502
lthumb 10.9564 25.8135
rfemur 3.24474 8.3148 14.7287
rtibia 30.5299
rfoot 369.231 -21.1043
rtoes -10.9044
lfemur -9.21229 -14.7162 -15.8181
ltibia 41.2813
lfoot 19.6538 8.16111
ltoes -0.161289
204
root 0.14557 20.3636 0.0805884 -17.5501 -81.3583 8.29898
lowerback 10.2032 1.75556 0.206726
upperback -6.15923 1.59783 -5.70805
thorax -12.3325 0.360704 -6.73923
lowerneck 8.85332 -6.39984 2.63773
upperneck 13.501 -9.36127 3.54907
head 2.92198 -4.71377 0.697394
rclavicle 2.74323e-014 -3.18055e-015
rhumerus 85.8852 -7.89544 -84.7404
rradius 16.0572
rwrist 49.9101
rhand -15.009 370.515
rfingers 7.12502
rthumb 11.156 340.831
lclavicle 2.74323e-014 -3.18055e-015
lhumerus -138.656 211.949 -99.4239
lradius 93.2601
lwrist 36.6311
lhand -15.5291 -3.87228
lfingers 7.12502
lthumb 10.6544 25.8376
rfemur 2.31764 8.3783 14.4178
rtibia 30.7621
rfoot 367.38 -20.9618
rtoes -11.2116
lfemur -9.54327 -14.5054 -15.6911
ltibia 41.1637
lfoot 18.4748 8.60131
ltoes 1.7227
205
root 0.16439 20.1164 0.085643 -17.3913 -81.6196 8.2308
lowerback 10.4066 1.7199 0.42178
upperback -6.0752 1.58849 -5.69095
thorax -12.3561 0.341078 -6.84923
lowerneck 8.9283 -6.32886 2.77469
upperneck 13.313 -9.2236 3.45079
head 2.82977 -4.64303 0.650619
rclavicle 4.6118e-014 -3.49861e-014
rhumerus 84.4545 -7.73264 -82.5318
rradius 17.4635
rwrist 48.3003
rhand -16.9348 370.674
rfingers 7.12502
rthumb 9.29822 340.899
lclavicle 4.6118e-014 -3.49861e-014
lhumerus -138.716 211.673 -99.5121
lradius 93.1438
lwrist 36.3311
lhand -15.8119 -3.91964
lfingers 7.12502
lthumb 10.3816 25.8041
rfemur 1.32897 8.37023 14.1232
rtibia 31.0896
rfoot 366.199 -21.0905
rtoes -11.1025
lfemur -9.89694 -14.3158 -15.5447
ltibia 41.0739
lfoot 17.2076 8.9802
ltoes 2.93637
206
root 0.185028 19.858 0.0909502 -17.1147 -81.879 8.02524
lowerback 10.6657 1.69189 0.659676
upperback -5.98037 1.59641 -5.65627
thorax -12.3991 0.328731 -6.95909
lowerneck 9.02417 -6.25676 2.8949
upperneck 13.0704 -9.07634 3.33111
head 2.71546 -4.56891 0.601547
rclavicle 3.85642e-014 2.38542e-014
rhumerus 83.0816 -7.51253 -80.6301
rradius 18.9515
rwrist 47.0371
rhand -18.7319 370.815
rfingers 7.12502
rthumb 7.56397 340.97
lclavicle 3.85642e-014 2.38542e-014
lhumerus -138.839 211.456 -99.558
lradius 93.0979
lwrist 36.0486
lhand -16.1375 -3.96059
lfingers 7.12502
lthumb 10.0675 25.7786
rfemur 0.24236 8.32218 13.8356
rtibia 31.5321
rfoot 365.511 -21.4004
rtoes -10.2306
lfemur -10.2774 -14.1251 -15.3939
ltibia 41.0211
lfoot 15.8494 9.13769
ltoes 2.70535
207
root 0.20742 19.584 0.0957923 -16.834 -82.1289 7.78105
lowerback 10.9817 1.65735 0.887143
upperback -5.88521 1.59446 -5.61647
thorax -12.4781 0.311502 -7.05906
lowerneck 9.19868 -6.17233 3.05931
upperneck 12.7606 -8.90166 3.21158
head 2.56409 -4.48153 0.549404
rclavicle -5.1684e-015 3.18055e-014
rhumerus 81.7498 -7.21995 -78.7992
rradius 20.4649
rwrist 45.8644
rhand -20.3392 370.933
rfingers 7.12502
rthumb 6.01237 341.038
lclavicle -5.1684e-015 3.18055e-014
lhumerus -139.228 211.254 -99.5282
lradius 93.2197
lwrist 35.7035
lhand -16.3282 -3.99882
lfingers 7.12502
lthumb 9.88357 25.7492
rfemur -0.882784 8.12793 13.5415
rtibia 32.0877
rfoot 365.442 -21.7103
rtoes -9.43753
lfemur -10.6516 -13.9066 -15.2428
ltibia 41.0753
lfoot 14.3986 9.22195
ltoes 1.91033
208
root 0.232352 19.2984 0.101175 -16.6776 -82.3435 7.58477
lowerback 11.3812 1.59443 1.05499
upperback -5.76003 1.55182 -5.53332
thorax -12.5809 0.28275 -7.07028
lowerneck 9.40863 -6.06255 3.19457
upperneck 12.3802 -8.68411 3.06322
head 2.3841 -4.37513 0.495005
rclavicle -9.14409e-015 1.59028e-014
rhumerus 80.5464 -6.83887 -76.6997
rradius 22.0118
rwrist 44.3421
rhand -21.6516 370.971
rfingers 7.12502
rthumb 4.74523 341.044
lclavicle -9.14409e-015 1.59028e-014
lhumerus -139.587 210.936 -99.4437
lradius 93.2694
lwrist 35.4084
lhand -16.4536 -4.02842
lfingers 7.12502
lthumb 9.76256 25.7253
rfemur -1.96953 7.73185 13.2244
rtibia 32.825
rfoot 365.737 -21.8188
rtoes -8.52056
lfemur -10.9694 -13.6966 -15.1437
ltibia 41.3297
lfoot 12.9849 9.25486
ltoes 1.45945
209
root 0.26009 19.0052 0.10622 -16.4569 -82.5583 7.19235
lowerback 11.9127 1.52599 1.22756
upperback -5.59534 1.50835 -5.42294
thorax -12.7191 0.254729 -7.05848
lowerneck 9.63635 -5.94208 3.28665
upperneck 11.9542 -8.45248 2.92662
head 2.19068 -4.26335 0.452079
rclavicle 2.26615e-014 -2.8625e-014
rhumerus 79.3754 -6.43644 -74.4831
rradius 23.6441
rwrist 42.6605
rhand -22.6826 370.951
rfingers 7.12502
rthumb 3.7496 341.004
lclavicle 2.26615e-014 -2.8625e-014
lhumerus -139.93 210.601 -99.3375
lradius 93.3103
lwrist 35.0791
lhand -16.5373 -3.99196
lfingers 7.12502
lthumb 9.68176 25.7655
rfemur -2.92568 7.20031 12.9543
rtibia 33.8284
rfoot 365.849 -21.5974
rtoes -7.25413
lfemur -11.1953 -13.4936 -15.0492
ltibia 41.888
lfoot 11.1143 9.06655
ltoes 0.509478
210
root 0.291238 18.6979 0.110678 -16.5073 -82.7458 6.92053
lowerback 12.5971 1.44856 1.38659
upperback -5.38125 1.45338 -5.30783
thorax -12.8951 0.222256 -7.03654
lowerneck 9.90481 -5.81491 3.26964
upperneck 11.4434 -8.21668 2.83778
head 1.97186 -4.15361 0.443566
rclavicle 1.43125e-014 -1.74931e-014
rhumerus 78.229 -6.01923 -72.31
rradius 25.3673
rwrist 40.9738
rhand -23.4269 370.875
rfingers 7.12502
rthumb 3.03085 340.916
lclavicle 1.43125e-014 -1.74931e-014
lhumerus -140.239 210.273 -99.2931
lradius 93.3401
lwrist 34.7431
lhand -16.5731 -3.93621
lfingers 7.12502
lthumb 9.64728 25.8229
rfemur -3.74805 6.44186 12.6485
rtibia 35.1926
rfoot 365.151 -20.8777
rtoes -6.99104
lfemur -11.2995 -13.2312 -15.0047
ltibia 42.797
lfoot 8.49474 8.49969
ltoes -0.142578
